#!OML:ASF G:\JayActor3\Patient Classification 1\Patient 1\Session 2\male.ASF
:FULLY-SPECIFIED
:DEGREES
1366
root -2.16172 17.4927 -6.19434 -39.6646 -84.9019 40.7407
lowerback 3.38667 2.45436 1.79611
upperback 0.551581 3.32137 -0.657395
thorax -1.18871 1.64966 -1.8197
lowerneck -2.79172 -5.03075 -6.79657
upperneck 2.05759 -6.62464 5.83199
head 1.60902 -3.28036 2.90015
rclavicle 5.46658e-015 -8.74653e-015
rhumerus -11.1587 29.1361 -65.5005
rradius 55.7095
rwrist -5.11961
rhand -28.564 6.12376
rfingers 7.12502
rthumb -1.93061 -23.8473
lclavicle 5.46658e-015 -8.74653e-015
lhumerus -36.1778 -19.1341 68.8785
lradius 68.8487
lwrist 20.2638
lhand -14.6579 17.3503
lfingers 7.12502
lthumb 11.4947 47.0152
rfemur -8.17726 -0.301285 26.3026
rtibia 33.2157
rfoot -12.3573 -7.75929
rtoes 21.4038
lfemur -34.755 -8.28091 -20.4047
ltibia 54.9715
lfoot 3.89627 -12.0402
ltoes -9.57753
1367
root -2.23804 17.5273 -6.19866 -43.1641 -85.4391 44.6264
lowerback 3.62633 2.60167 2.10861
upperback 0.511018 3.53423 -0.646072
thorax -1.33675 1.75237 -2.00421
lowerneck -2.99212 -4.97012 -6.65679
upperneck 1.67661 -6.52307 5.80463
head 1.5066 -3.22508 2.86658
rclavicle -1.10822e-014 -3.97569e-015
rhumerus -9.69519 29.1381 -64.8131
rradius 55.9582
rwrist -4.67455
rhand -28.7794 6.37893
rfingers 7.12502
rthumb -2.13867 -23.5901
lclavicle -1.10822e-014 -3.97569e-015
lhumerus -37.6723 -18.5262 69.2437
lradius 67.6333
lwrist 19.9682
lhand -14.3796 17.4555
lfingers 7.12502
lthumb 11.7631 47.1052
rfemur -8.25591 -0.243796 26.3432
rtibia 33.012
rfoot -11.6821 -7.30215
rtoes 21.9862
lfemur -35.1219 -7.06138 -21.419
ltibia 53.8279
lfoot 6.14149 -13.5545
ltoes -7.5634
1368
root -2.31664 17.5641 -6.20591 -47.2823 -85.9993 49.1506
lowerback 3.8366 2.74262 2.41459
upperback 0.469911 3.73992 -0.611232
thorax -1.46912 1.85118 -2.16032
lowerneck -3.20962 -4.91034 -6.52151
upperneck 1.29575 -6.42275 5.7765
head 1.40802 -3.17081 2.83329
rclavicle -9.0447e-015 -1.19271e-014
rhumerus -8.33651 29.0817 -64.2496
rradius 56.3125
rwrist -4.36527
rhand -28.9393 6.57948
rfingers 7.12502
rthumb -2.29306 -23.3879
lclavicle -9.0447e-015 -1.19271e-014
lhumerus -39.1823 -17.8541 69.6135
lradius 66.4145
lwrist 19.6193
lhand -14.1047 17.5156
lfingers 7.12502
lthumb 12.0282 47.15
rfemur -8.34516 -0.286431 26.4256
rtibia 32.7801
rfoot -10.8984 -6.81355
rtoes 22.5418
lfemur -35.3859 -5.76439 -22.4575
ltibia 52.6117
lfoot 8.55449 -14.7763
ltoes -5.48486
1369
root -2.39748 17.6017 -6.21536 -52.7739 -86.5655 55.063
lowerback 4.01543 2.8801 2.69807
upperback 0.432377 3.94099 -0.561535
thorax -1.5812 1.94765 -2.28752
lowerneck -3.43706 -4.84907 -6.38674
upperneck 0.917513 -6.32123 5.74462
head 1.31231 -3.11646 2.79877
rclavicle -2.29099e-014 -3.97569e-016
rhumerus -7.06812 28.9821 -63.8073
rradius 56.7491
rwrist -4.18203
rhand -29.005 6.72135
rfingers 7.12502
rthumb -2.35651 -23.2454
lclavicle -2.29099e-014 -3.97569e-016
lhumerus -40.71 -17.1201 69.9703
lradius 65.2428
lwrist 19.3118
lhand -13.8472 17.5642
lfingers 7.12502
lthumb 12.2764 47.1838
rfemur -8.45349 -0.444359 26.5187
rtibia 32.5508
rfoot -9.99253 -6.26399
rtoes 23.0323
lfemur -35.5408 -4.44635 -23.5132
ltibia 51.3243
lfoot 10.9782 -15.65
ltoes -3.48009
1370
root -2.48066 17.6389 -6.22599 -60.7899 -87.1151 63.5103
lowerback 4.16387 3.01724 2.95981
upperback 0.398391 4.14105 -0.50465
thorax -1.67319 2.04374 -2.39399
lowerneck -3.67221 -4.78145 -6.24143
upperneck 0.553895 -6.21286 5.70201
head 1.22181 -3.05926 2.75881
rclavicle 4.74101e-014 -5.56597e-015
rhumerus -5.89099 28.8592 -63.4879
rradius 57.2513
rwrist -4.10984
rhand -28.9742 6.81663
rfingers 7.12502
rthumb -2.32676 -23.1504
lclavicle 4.74101e-014 -5.56597e-015
lhumerus -42.256 -16.3463 70.3041
lradius 64.1473
lwrist 19.1425
lhand -13.6375 17.6076
lfingers 7.12502
lthumb 12.4786 47.215
rfemur -8.59102 -0.71708 26.6049
rtibia 32.3561
rfoot -8.9594 -5.63083
rtoes 23.4812
lfemur -35.5875 -3.15853 -24.567
ltibia 49.9733
lfoot 13.2645 -16.1379
ltoes -1.66218
1371
root -2.56626 17.6741 -6.23647 -73.3636 -87.5964 76.5241
lowerback 4.28052 3.16102 3.20191
upperback 0.365818 4.34896 -0.448331
thorax -1.7455 2.14395 -2.48895
lowerneck -3.90649 -4.70473 -6.08266
upperneck 0.216001 -6.09495 5.64598
head 1.1382 -2.99799 2.71218
rclavicle 2.48481e-014 -1.27222e-014
rhumerus -4.80461 28.7311 -63.2869
rradius 57.7955
rwrist -4.13677
rhand -28.8624 6.88208
rfingers 7.12502
rthumb -2.2188 -23.0861
lclavicle 2.48481e-014 -1.27222e-014
lhumerus -43.8196 -15.5729 70.6192
lradius 63.144
lwrist 19.1846
lhand -13.5034 17.6989
lfingers 7.12502
lthumb 12.608 47.2985
rfemur -8.77123 -1.09291 26.6622
rtibia 32.2222
rfoot -7.78293 -4.89834
rtoes 23.8425
lfemur -35.5331 -1.94408 -25.5996
ltibia 48.5678
lfoot 15.335 -16.1674
ltoes 0.109747
1372
root -2.65461 17.7068 -6.24602 -92.7391 -87.8959 96.3524
lowerback 4.35059 3.31906 3.42055
upperback 0.33558 4.57365 -0.398797
thorax -1.7882 2.25313 -2.57576
lowerneck -4.14178 -4.61517 -5.90662
upperneck -0.0807094 -5.96301 5.57545
head 1.06638 -2.9303 2.65783
rclavicle -3.27995e-015 -3.97569e-015
rhumerus -3.80314 28.6183 -63.1935
rradius 58.3651
rwrist -4.24706
rhand -28.7061 6.9226
rfingers 7.12502
rthumb -2.06786 -23.0471
lclavicle -3.27995e-015 -3.97569e-015
lhumerus -45.3898 -14.8362 70.9243
lradius 62.23
lwrist 19.4654
lhand -13.4624 17.8146
lfingers 7.12502
lthumb 12.6474 47.4116
rfemur -8.99968 -1.5609 26.6729
rtibia 32.1549
rfoot -6.44755 -4.05038
rtoes 24.1091
lfemur -35.394 -0.817255 -26.5954
ltibia 47.1221
lfoot 17.1291 -15.6994
ltoes 1.87969
1373
root -2.74577 17.7366 -6.25451 -116.726 -87.8602 120.807
lowerback 4.36871 3.49522 3.62061
upperback 0.304057 4.81995 -0.355569
thorax -1.80136 2.37376 -2.65617
lowerneck -4.37455 -4.51107 -5.71951
upperneck -0.322706 -5.81504 5.49623
head 1.01047 -2.85508 2.59892
rclavicle -4.14466e-014 3.18055e-015
rhumerus -2.88838 28.5393 -63.196
rradius 58.9482
rwrist -4.42326
rhand -28.5419 6.93938
rfingers 7.12502
rthumb -1.90926 -23.0318
lclavicle -4.14466e-014 3.18055e-015
lhumerus -46.9527 -14.1681 71.2338
lradius 61.3959
lwrist 19.9428
lhand -13.5047 17.9503
lfingers 7.12502
lthumb 12.6066 47.5499
rfemur -9.27139 -2.10009 26.6431
rtibia 32.1393
rfoot -4.96043 -3.08992
rtoes 24.2181
lfemur -35.1919 0.227698 -27.5297
ltibia 45.6543
lfoot 18.6396 -14.7249
ltoes 3.73509
1374
root -2.83983 17.7636 -6.26256 -137.576 -87.446 142.137
lowerback 4.33623 3.68739 3.80328
upperback 0.268939 5.08489 -0.31492
thorax -1.78856 2.50435 -2.72651
lowerneck -4.60038 -4.39084 -5.51794
upperneck -0.499754 -5.64941 5.40807
head 0.972786 -2.77142 2.53484
rclavicle 3.89618e-014 2.38542e-015
rhumerus -2.06203 28.5167 -63.2857
rradius 59.5292
rwrist -4.65635
rhand -28.428 6.95853
rfingers 7.12502
rthumb -1.79928 -23.0136
lclavicle 3.89618e-014 2.38542e-015
lhumerus -48.4932 -13.5693 71.5505
lradius 60.6349
lwrist 20.4994
lhand -13.5733 18.1027
lfingers 7.12502
lthumb 12.5405 47.7064
rfemur -9.56068 -2.68417 26.5926
rtibia 32.1408
rfoot -3.35357 -2.0361
rtoes 24.2041
lfemur -34.9435 1.20699 -28.3786
ltibia 44.1851
lfoot 19.8689 -13.3236
ltoes 5.637
1375
root -2.93693 17.7882 -6.27124 -151.828 -86.7642 156.877
lowerback 4.26028 3.89249 3.96311
upperback 0.224532 5.36436 -0.270755
thorax -1.76113 2.64261 -2.77762
lowerneck -4.82206 -4.25545 -5.30652
upperneck -0.594469 -5.46734 5.31641
head 0.959898 -2.67962 2.46809
rclavicle -5.16343e-014 3.97569e-015
rhumerus -1.33884 28.5646 -63.4544
rradius 60.1041
rwrist -4.89285
rhand -28.3898 6.99627
rfingers 7.12502
rthumb -1.76237 -22.9762
lclavicle -5.16343e-014 3.97569e-015
lhumerus -50.0058 -13.0297 71.8729
lradius 59.9538
lwrist 20.997
lhand -13.611 18.2361
lfingers 7.12502
lthumb 12.5041 47.8419
rfemur -9.83529 -3.28399 26.5474
rtibia 32.12
rfoot -1.68038 -0.924257
rtoes 24.1196
lfemur -34.6692 2.14887 -29.1275
ltibia 42.7348
lfoot 20.8245 -11.658
ltoes 7.37501
1376
root -3.03763 17.8103 -6.28188 -160.975 -85.9613 166.503
lowerback 4.14589 4.09493 4.09396
upperback 0.172887 5.63732 -0.219518
thorax -1.72263 2.77805 -2.80147
lowerneck -5.0427 -4.10547 -5.0858
upperneck -0.600536 -5.26963 5.23155
head 0.974859 -2.57975 2.40217
rclavicle -4.75095e-014 -6.36111e-015
rhumerus -0.719087 28.706 -63.6944
rradius 60.6705
rwrist -5.09553
rhand -28.4442 7.05477
rfingers 7.12502
rthumb -1.81495 -22.9173
lclavicle -4.75095e-014 -6.36111e-015
lhumerus -51.4841 -12.5176 72.1773
lradius 59.3686
lwrist 21.3001
lhand -13.56 18.3325
lfingers 7.12502
lthumb 12.5533 47.9354
rfemur -10.0522 -3.88304 26.5352
rtibia 32.0425
rfoot -0.0182554 0.188382
rtoes 24.0265
lfemur -34.365 3.06172 -29.7692
ltibia 41.322
lfoot 21.5018 -9.95805
ltoes 8.56997
1377
root -3.142 17.8292 -6.29543 -167.109 -85.1157 173.101
lowerback 4.00082 4.28717 4.18538
upperback 0.114562 5.89349 -0.161844
thorax -1.67915 2.90547 -2.79305
lowerneck -5.26844 -3.94478 -4.86126
upperneck -0.512678 -5.06123 5.1669
head 1.02141 -2.47384 2.3424
rclavicle 1.99779e-014 2.38542e-015
rhumerus -0.206378 28.9494 -64.0017
rradius 61.232
rwrist -5.21479
rhand -28.582 7.13648
rfingers 7.12502
rthumb -1.948 -22.8344
lclavicle 1.99779e-014 2.38542e-015
lhumerus -52.9268 -12.0012 72.4337
lradius 58.8982
lwrist 21.3269
lhand -13.378 18.3883
lfingers 7.12502
lthumb 12.7288 47.9804
rfemur -10.188 -4.46769 26.5695
rtibia 31.8956
rfoot 1.57672 1.25864
rtoes 24.0171
lfemur -34.0303 3.95676 -30.3037
ltibia 39.9576
lfoot 21.8919 -8.36732
ltoes 9.06635
1378
root -3.25043 17.8439 -6.31266 -171.477 -84.2729 177.906
lowerback 3.82696 4.4626 4.23342
upperback 0.0547791 6.12378 -0.103208
thorax -1.62747 3.02054 -2.75538
lowerneck -5.50373 -3.7765 -4.62713
upperneck -0.33823 -4.8467 5.12956
head 1.09834 -2.36388 2.29011
rclavicle 4.69132e-014 -3.18055e-015
rhumerus 0.197195 29.3006 -64.3752
rradius 61.7936
rwrist -5.22364
rhand -28.7842 7.24374
rfingers 7.12502
rthumb -2.14331 -22.7252
lclavicle 4.69132e-014 -3.18055e-015
lhumerus -54.3259 -11.4557 72.6063
lradius 58.5493
lwrist 21.0677
lhand -13.0421 18.3955
lfingers 7.12502
lthumb 13.0526 47.9671
rfemur -10.2279 -5.03571 26.6574
rtibia 31.6839
rfoot 3.04944 2.24269
rtoes 24.1179
lfemur -33.6571 4.82958 -30.7319
ltibia 38.6467
lfoot 21.9782 -6.94155
ltoes 8.78982
1379
root -3.36207 17.8532 -6.33384 -174.652 -83.4558 181.488
lowerback 3.63519 4.61648 4.22453
upperback -0.00530878 6.32188 -0.0529924
thorax -1.57384 3.12009 -2.69148
lowerneck -5.74741 -3.60418 -4.39855
upperneck -0.0913087 -4.63059 5.14295
head 1.20254 -2.25167 2.25599
rclavicle -3.97569e-015 -5.96354e-015
rhumerus 0.495409 29.7588 -64.8122
rradius 62.3637
rwrist -5.11726
rhand -29.0084 7.35202
rfingers 7.12502
rthumb -2.3598 -22.6147
lclavicle -3.97569e-015 -5.96354e-015
lhumerus -55.6811 -10.8822 72.6767
lradius 58.3298
lwrist 20.6085
lhand -12.6019 18.3678
lfingers 7.12502
lthumb 13.4769 47.9118
rfemur -10.1823 -5.58166 26.7878
rtibia 31.4331
rfoot 4.36252 3.11569
rtoes 24.3259
lfemur -33.2411 5.66434 -31.0687
ltibia 37.3843
lfoot 21.7704 -5.60521
ltoes 7.79152
1380
root -3.47646 17.8561 -6.35914 -177.014 -82.6796 184.22
lowerback 3.42755 4.74543 4.15734
upperback -0.0598308 6.48343 -0.0195711
thorax -1.51322 3.20219 -2.60915
lowerneck -5.99583 -3.43196 -4.16414
upperneck 0.204103 -4.41937 5.20183
head 1.32553 -2.1404 2.23635
rclavicle -5.24792e-014 -8.34896e-015
rhumerus 0.692686 30.3058 -65.3165
rradius 62.9507
rwrist -4.90528
rhand -29.2089 7.44878
rfingers 7.12502
rthumb -2.55347 -22.5157
lclavicle -5.24792e-014 -8.34896e-015
lhumerus -56.9847 -10.2976 72.6398
lradius 58.2333
lwrist 20.0807
lhand -12.14 18.3263
lfingers 7.12502
lthumb 13.9221 47.8402
rfemur -10.0614 -6.10047 26.9524
rtibia 31.1726
rfoot 5.48036 3.86114
rtoes 24.6374
lfemur -32.7786 6.43971 -31.3178
ltibia 36.1631
lfoot 21.339 -4.26591
ltoes 6.09907
